<svg viewBox="0 0 100 100" fill="none" xmlns="http://www.w3.org/2000/svg">
    <rect x="20" y="20" width="15" height="60" rx="7.5" fill="#FFFFFF" />
    <path fill-rule="evenodd" clip-rule="evenodd" d="M70 20C53.4315 20 40 33.4315 40 50C40 66.5685 53.4315 80 70 80C86.5685 80 100 66.5685 100 50C100 33.4315 86.5685 20 70 20ZM70 35C61.7157 35 55 41.7157 55 50C55 58.2843 61.7157 65 70 65C78.2843 65 85 58.2843 85 50C85 41.7157 78.2843 35 70 35Z" fill="#FFFFFF" />
    <path d="M85 20L87 15L92 13L87 11L85 6L83 11L78 13L83 15L85 20Z" fill="#EAB308" />
</svg>
